<svg width="46" height="46" viewBox="0 0 46 46" fill="none" xmlns="http://www.w3.org/2000/svg">
<path d="M26.8587 27.25C27.2862 27.25 27.6416 27.1062 27.925 26.8187C28.2083 26.5312 28.35 26.175 28.35 25.75V20.65H33.45C33.875 20.65 34.2312 20.5054 34.5187 20.2162C34.8062 19.927 34.95 19.5687 34.95 19.1412C34.95 18.7137 34.8062 18.3583 34.5187 18.075C34.2312 17.7916 33.875 17.65 33.45 17.65H28.35V12.55C28.35 12.125 28.2054 11.7687 27.9162 11.4812C27.627 11.1937 27.2687 11.05 26.8412 11.05C26.4137 11.05 26.0583 11.1937 25.775 11.4812C25.4916 11.7687 25.35 12.125 25.35 12.55V17.65H20.25C19.825 17.65 19.4687 17.7946 19.1812 18.0837C18.8937 18.3729 18.75 18.7313 18.75 19.1587C18.75 19.5862 18.8937 19.9416 19.1812 20.225C19.4687 20.5083 19.825 20.65 20.25 20.65H25.35V25.75C25.35 26.175 25.4946 26.5312 25.7837 26.8187C26.0729 27.1062 26.4313 27.25 26.8587 27.25ZM13.3 37.4C11.9983 37.4 10.8896 36.9421 9.97373 36.0262C9.05789 35.1104 8.59998 34.0016 8.59998 32.7V5.59998C8.59998 4.28454 9.05789 3.16403 9.97373 2.23843C10.8896 1.31279 11.9983 0.849976 13.3 0.849976H40.4C41.7154 0.849976 42.8359 1.31279 43.7615 2.23843C44.6872 3.16403 45.15 4.28454 45.15 5.59998V32.7C45.15 34.0016 44.6872 35.1104 43.7615 36.0262C42.8359 36.9421 41.7154 37.4 40.4 37.4H13.3ZM13.3 32.7H40.4V5.59998H13.3V32.7ZM5.59998 45.15C4.28454 45.15 3.16403 44.6872 2.23843 43.7615C1.31279 42.8359 0.849976 41.7154 0.849976 40.4V10.95C0.849976 10.2916 1.07789 9.73539 1.53373 9.28123C1.98959 8.82706 2.55626 8.59998 3.23373 8.59998C3.91123 8.59998 4.47498 8.82706 4.92498 9.28123C5.37498 9.73539 5.59998 10.2916 5.59998 10.95V40.4H35.05C35.7083 40.4 36.2646 40.6279 36.7187 41.0837C37.1729 41.5396 37.4 42.1063 37.4 42.7837C37.4 43.4612 37.1729 44.025 36.7187 44.475C36.2646 44.925 35.7083 45.15 35.05 45.15H5.59998Z" fill="#E6E6E6"/>
</svg>
